<?xml version="1.0" encoding="utf-8"?>
<svg viewBox="0 0 401 401" xmlns="http://www.w3.org/2000/svg">
  <circle style="fill: rgb(255, 50, 60);" cx="200.5" cy="200.5" r="200.5"/>
  <rect style="fill: rgb(255, 255, 255);" y="111.787" width="296.688" height="112.655" x="52.155"/>
  <polygon style="fill: rgb(255, 50, 60);" points="236.191 203.798 218.906 203.798 182.093 160.615 182.093 203.798 164.818 203.798 164.818 132.429 182.093 132.429 218.906 175.567 218.906 132.429 236.191 132.429"/>
  <path style="fill: rgb(255, 50, 60);" d="M 292.516 132.429 L 256.822 132.429 L 256.822 149.713 L 265.926 149.713 L 265.926 186.526 L 256.822 186.526 L 256.822 203.809 L 292.516 203.809 C 312.194 203.809 328.201 187.802 328.201 168.124 C 328.201 148.436 312.194 132.429 292.516 132.429 Z M 292.516 186.517 L 283.209 186.517 L 283.209 149.703 L 292.516 149.703 C 302.668 149.703 310.919 157.964 310.919 168.105 C 310.927 178.266 302.668 186.517 292.516 186.517 Z"/>
  <path style="fill: rgb(255, 50, 60);" d="M 108.491 132.429 C 88.812 132.429 72.805 148.436 72.805 168.115 L 72.805 203.809 L 90.088 203.809 L 90.088 194.705 L 126.902 194.705 L 126.902 203.809 L 144.185 203.809 L 144.185 168.115 C 144.176 148.436 128.168 132.429 108.491 132.429 Z M 126.894 177.413 L 90.079 177.413 L 90.079 168.105 C 90.079 157.954 98.34 149.703 108.481 149.703 C 118.632 149.703 126.883 157.954 126.883 168.105 L 126.894 177.413 L 126.894 177.413 Z"/>
  <path style="fill: rgb(255, 255, 255);" d="M 92.824 244.725 C 102.739 244.725 109.26 246.872 114.35 250.62 C 122.029 256.337 126.764 265.624 126.764 275.989 C 126.764 286.353 122.029 295.64 114.35 301.357 C 109.26 305.113 102.739 307.251 92.824 307.251 L 73.173 307.251 L 73.173 244.725 L 92.824 244.725 L 92.824 244.725 Z M 110.152 262.407 C 106.67 258.033 101.573 255.435 94.16 255.435 L 85.226 255.435 L 85.226 296.525 L 94.16 296.525 C 101.573 296.525 106.663 293.935 110.152 289.562 C 113.015 285.992 114.704 281.167 114.704 275.98 C 114.711 270.81 113.015 265.986 110.152 262.407 Z"/>
  <path style="fill: rgb(255, 255, 255);" d="M 198.94 304.838 C 198.94 312.614 197.597 316.209 195.007 319.867 C 191.076 325.32 184.112 328.535 175.807 328.535 C 167.324 328.535 159.283 324.604 154.989 319.602 L 162.314 312.011 C 164.637 314.511 168.657 318.268 175.807 318.268 C 179.561 318.268 182.681 317.101 184.652 314.786 C 186.436 312.815 187.328 310.137 187.328 304.598 L 187.328 304.22 C 183.846 306.897 180.093 308.152 175.717 308.152 C 169.284 308.152 163.126 305.296 159.283 300.827 C 155.889 296.894 153.83 291.54 153.83 285.637 C 153.83 272.86 163.303 263.035 175.09 263.035 C 180.003 263.035 184.378 264.643 187.779 267.409 L 187.779 263.927 L 198.94 263.927 L 198.94 304.838 L 198.94 304.838 Z M 187.328 279.116 C 184.916 275.899 181.073 273.761 176.611 273.761 C 169.824 273.761 165.443 279.39 165.443 285.645 C 165.443 292.432 170.354 297.433 176.875 297.433 C 181.249 297.433 185.094 295.286 187.328 292.07 L 187.328 279.116 Z"/>
  <path style="fill: rgb(255, 255, 255);" d="M 214.934 243.777 C 218.865 243.777 222.041 246.784 222.041 250.716 C 222.041 254.647 218.865 257.654 214.934 257.654 C 211.002 257.654 207.825 254.647 207.825 250.716 C 207.825 246.784 211.002 243.777 214.934 243.777 Z M 220.739 307.251 L 209.128 307.251 L 209.128 263.927 L 220.739 263.927 L 220.739 307.251 Z"/>
  <path style="fill: rgb(255, 255, 255);" d="M 140.346 243.777 C 144.279 243.777 147.455 246.784 147.455 250.716 C 147.455 254.647 144.279 257.654 140.346 257.654 C 136.414 257.654 133.238 254.647 133.238 250.716 C 133.238 246.784 136.414 243.777 140.346 243.777 Z M 146.151 307.251 L 134.54 307.251 L 134.54 263.927 L 146.151 263.927 L 146.151 307.251 Z"/>
  <path style="fill: rgb(255, 255, 255);" d="M 256.384 307.251 C 254.864 307.79 251.382 308.145 249.147 308.145 C 242.183 308.145 237.085 305.821 234.143 301.888 C 231.907 298.937 230.927 295.101 230.927 288.934 L 230.927 273.753 L 230.927 263.927 L 230.927 251.865 L 242.538 251.865 L 242.538 263.927 L 254.663 263.927 L 254.663 273.753 L 242.538 273.753 L 242.538 290.277 C 242.538 292.955 242.98 294.563 243.968 295.728 C 245.126 297.072 247.008 297.867 249.863 297.867 C 251.56 297.867 253.794 297.602 254.598 297.417 L 256.384 307.251 Z"/>
  <path style="fill: rgb(255, 255, 255);" d="M 305.513 307.251 L 294.345 307.251 L 294.345 303.769 C 290.775 306.809 286.666 308.145 282.283 308.145 C 275.851 308.145 269.779 305.289 265.937 300.818 C 262.543 296.887 260.396 291.524 260.396 285.629 C 260.396 272.852 269.859 263.027 281.657 263.027 C 286.569 263.027 290.944 264.634 294.336 267.4 L 294.336 263.918 L 305.506 263.918 L 305.506 307.251 L 305.513 307.251 Z M 293.902 279.116 C 291.489 275.899 287.646 273.761 283.184 273.761 C 276.398 273.761 272.015 279.39 272.015 285.645 C 272.015 292.432 276.927 297.433 283.448 297.433 C 287.824 297.433 291.667 295.286 293.902 292.078 L 293.902 279.116 L 293.902 279.116 Z"/>
  <path style="fill: rgb(255, 255, 255);" d="M 327.319 307.251 L 315.701 307.251 L 315.701 244.725 L 327.312 244.725 L 327.319 307.251 Z"/>
</svg>