<?xml version="1.0" encoding="utf-8"?>
<svg viewBox="5907.944 5102.944 184.112 184.112" xmlns="http://www.w3.org/2000/svg">
  <circle style="fill: rgb(224, 27, 28);" cx="6000" cy="5195" r="92.056"/>
  <g transform="matrix(1.013686, 0, 0, 1.013686, 4307.530762, 4233.998047)" style="">
    <path d="M 1684.557 994.296 C 1676.586 993.693 1668.855 991.04 1662.251 986.633 C 1658.205 983.94 1653.931 979.88 1650.903 975.888 C 1646.629 970.234 1643.628 963.429 1642.369 956.529 C 1641.793 953.314 1641.686 951.987 1641.699 947.888 C 1641.699 943.721 1641.847 942.1 1642.503 938.845 C 1644.888 927.042 1652.109 916.297 1662.264 909.478 C 1674.576 901.212 1690.17 899.349 1703.983 904.521 C 1709.878 906.718 1715.451 910.335 1719.993 914.917 L 1721.4 916.337 L 1715.478 922.259 L 1709.556 928.18 L 1708.498 927.176 C 1703.702 922.58 1697.914 919.66 1691.658 918.668 C 1689.903 918.387 1686.084 918.36 1684.356 918.601 C 1676.653 919.7 1669.632 923.665 1664.89 929.627 C 1659.276 936.674 1657.213 945.248 1658.982 954.077 C 1660.629 962.343 1666.176 969.806 1673.799 974.053 C 1682.065 978.648 1692.354 978.822 1701.973 974.521 C 1703.166 973.986 1705.149 972.9 1706.033 972.311 L 1706.596 971.922 L 1706.569 964.795 L 1706.529 957.668 L 1696.387 957.628 L 1686.232 957.601 L 1686.232 949.428 L 1686.232 941.256 L 1704.72 941.256 L 1723.208 941.256 L 1723.208 960.87 L 1723.208 980.47 L 1722.163 981.461 C 1717.407 986.003 1710.333 989.928 1702.965 992.152 C 1696.923 993.961 1690.345 994.738 1684.557 994.296 Z" style="fill: rgb(255, 255, 255);"/>
    <path d="M 1616.03 948.022 L 1616.03 903.878 L 1624.604 903.878 L 1633.178 903.878 L 1633.178 948.022 L 1633.178 992.166 L 1624.604 992.166 L 1616.03 992.166 L 1616.03 948.022 Z" style="fill: rgb(255, 255, 255);"/>
  </g>
</svg>