<?xml version="1.0" encoding="utf-8"?>
<svg viewBox="15.721 230.152 184.112 184.112" xmlns="http://www.w3.org/2000/svg">
  <defs>
    <style type="text/css">
	.st0{fill:#BC251F;}
	.st1{fill:#FFFFFF;}
	.st2{fill:#005A92;}
</style>
  </defs>
  <circle style="fill: rgb(2, 2, 102);" cx="107.777" cy="322.208" r="92.056"/>
  <path style="fill: rgb(253, 253, 254); stroke: none;" d="M 49.635 276.714 L 49.635 367.645 L 65.449 367.645 C 67.401 367.644 70.439 368.138 72.089 366.832 C 73.464 365.743 73.323 363.676 73.352 362.109 C 73.432 357.896 73.356 353.673 73.356 349.459 L 73.356 297.272 L 95.496 297.272 L 95.496 367.645 L 119.217 367.645 L 119.217 297.272 C 124.607 297.272 136.165 295.752 139.745 300.307 C 142.965 304.404 141.912 308.795 142.148 317.83 L 142.148 367.645 L 165.869 367.645 L 165.869 313.086 C 165.869 303.815 166.799 293.214 160.704 285.423 C 153.069 275.664 139.779 276.714 128.706 276.714 L 49.635 276.714 Z"/>
</svg>