<?xml version="1.0" encoding="utf-8"?>
<svg viewBox="0 0 512 512" xmlns="http://www.w3.org/2000/svg">
  <rect width="512" height="512" style="fill: rgb(253, 216, 53);"/>
  <g transform="matrix(0.614244, 0, 0, 0.614244, 27.341431, 93.175339)" style="">
    <polygon style="fill: rgb(153, 153, 153);" points="473.572 23.781 618.068 164.493 472.356 164.839 473.191 27.338"/>
    <path d="M 223.346 81.899 L 222.981 19.865 L 471.888 19.336 L 617.019 164.885 L 616.703 509.529 L 223.255 509.243 L 223.422 220.117 M 470.982 16.256 L 471.341 165.32 L 611.583 164.775" style="stroke-linejoin: round; stroke-width: 22px; fill: rgb(255, 255, 255); stroke: rgb(51, 51, 51);"/>
    <rect x="127.03" y="84.891" width="263.623" height="132.254" style="stroke-linejoin: round; stroke-width: 22px; fill: rgb(255, 255, 255); stroke: rgb(51, 51, 51);"/>
    <path d="M 245.906 160.414 L 256.746 160.414 C 256.333 166.074 254.243 170.527 250.476 173.774 C 246.703 177.027 241.733 178.654 235.566 178.654 C 228.826 178.654 223.523 176.384 219.656 171.844 C 215.789 167.304 213.856 161.071 213.856 153.144 L 213.856 149.934 C 213.856 144.874 214.746 140.417 216.526 136.564 C 218.313 132.711 220.859 129.754 224.166 127.694 C 227.479 125.634 231.329 124.604 235.716 124.604 C 241.783 124.604 246.673 126.231 250.386 129.484 C 254.093 132.731 256.236 137.294 256.816 143.174 L 245.976 143.174 C 245.709 139.781 244.763 137.317 243.136 135.784 C 241.509 134.257 239.036 133.494 235.716 133.494 C 232.103 133.494 229.399 134.787 227.606 137.374 C 225.806 139.967 224.883 143.984 224.836 149.424 L 224.836 153.404 C 224.836 159.084 225.699 163.237 227.426 165.864 C 229.146 168.491 231.859 169.804 235.566 169.804 C 238.919 169.804 241.419 169.041 243.066 167.514 C 244.719 165.981 245.666 163.614 245.906 160.414 Z M 271.448 125.324 L 283.298 164.894 L 295.218 125.324 L 307.288 125.324 L 288.968 177.934 L 277.658 177.934 L 259.408 125.324 L 271.448 125.324 Z" style="white-space: pre;"/>
    <path d="M 296.312 276.249 L 544.118 276.249" style="stroke-width: 22px; stroke-linecap: round; stroke: rgb(0, 0, 0);">
      <title>top</title>
    </path>
    <path d="M 296.889 352.65 L 544.695 352.65" style="stroke-width: 22px; stroke-linecap: round; stroke: rgb(0, 0, 0);">
      <title>middle</title>
    </path>
    <path d="M 296.438 428.115 L 544.244 428.115" style="stroke-width: 22px; stroke-linecap: round; stroke: rgb(0, 0, 0);">
      <title>bottom</title>
    </path>
  </g>
</svg>