<?xml version="1.0" encoding="utf-8"?>
<svg viewBox="15.721 230.152 184.112 184.112" xmlns="http://www.w3.org/2000/svg">
  <defs>
    <style type="text/css">
	.st0{fill:#BC251F;}
	.st1{fill:#FFFFFF;}
	.st2{fill:#005A92;}
</style>
  </defs>
  <circle style="fill: rgb(151, 151, 151);" cx="107.777" cy="322.208" r="92.056"/>
  <path d="M 132.177 334.407 L 124.044 334.407 L 124.044 342.541 L 132.177 342.541 M 132.177 318.141 L 124.044 318.141 L 124.044 326.274 L 132.177 326.274 M 140.311 350.674 L 107.777 350.674 L 107.777 342.541 L 115.911 342.541 L 115.911 334.407 L 107.777 334.407 L 107.777 326.274 L 115.911 326.274 L 115.911 318.141 L 107.777 318.141 L 107.777 310.007 L 140.311 310.007 M 99.644 301.874 L 91.511 301.874 L 91.511 293.741 L 99.644 293.741 M 99.644 318.141 L 91.511 318.141 L 91.511 310.007 L 99.644 310.007 M 99.644 334.407 L 91.511 334.407 L 91.511 326.274 L 99.644 326.274 M 99.644 350.674 L 91.511 350.674 L 91.511 342.541 L 99.644 342.541 M 83.377 301.874 L 75.244 301.874 L 75.244 293.741 L 83.377 293.741 M 83.377 318.141 L 75.244 318.141 L 75.244 310.007 L 83.377 310.007 M 83.377 334.407 L 75.244 334.407 L 75.244 326.274 L 83.377 326.274 M 83.377 350.674 L 75.244 350.674 L 75.244 342.541 L 83.377 342.541 M 107.777 301.874 L 107.777 285.607 L 67.11 285.607 L 67.11 358.808 L 148.444 358.808 L 148.444 301.874 L 107.777 301.874 Z" style="fill: rgb(255, 255, 255);"/>
</svg>