<?xml version="1.0" encoding="utf-8"?>
<svg viewBox="0 0 512 512" xmlns="http://www.w3.org/2000/svg">
  <polygon style="fill: rgb(153, 153, 153);" points="357.609 15.25 502.105 155.962 356.393 156.308 357.228 18.807"/>
  <path d="M 107.383 73.368 L 107.018 11.334 L 355.925 10.805 L 501.056 156.354 L 500.74 500.998 L 107.292 500.712 L 107.459 211.586 M 355.019 7.725 L 355.378 156.789 L 495.62 156.244" style="stroke-linejoin: round; stroke-width: 22px; fill: rgb(255, 255, 255); stroke: rgb(51, 51, 51);"/>
  <rect x="11.067" y="76.36" width="263.623" height="132.254" style="stroke-linejoin: round; stroke-width: 22px; fill: rgb(255, 255, 255); stroke: rgb(51, 51, 51);"/>
  <path d="M 129.943 151.883 L 140.783 151.883 C 140.37 157.543 138.28 161.996 134.513 165.243 C 130.74 168.496 125.77 170.123 119.603 170.123 C 112.863 170.123 107.56 167.853 103.693 163.313 C 99.826 158.773 97.893 152.54 97.893 144.613 L 97.893 141.403 C 97.893 136.343 98.783 131.886 100.563 128.033 C 102.35 124.18 104.896 121.223 108.203 119.163 C 111.516 117.103 115.366 116.073 119.753 116.073 C 125.82 116.073 130.71 117.7 134.423 120.953 C 138.13 124.2 140.273 128.763 140.853 134.643 L 130.013 134.643 C 129.746 131.25 128.8 128.786 127.173 127.253 C 125.546 125.726 123.073 124.963 119.753 124.963 C 116.14 124.963 113.436 126.256 111.643 128.843 C 109.843 131.436 108.92 135.453 108.873 140.893 L 108.873 144.873 C 108.873 150.553 109.736 154.706 111.463 157.333 C 113.183 159.96 115.896 161.273 119.603 161.273 C 122.956 161.273 125.456 160.51 127.103 158.983 C 128.756 157.45 129.703 155.083 129.943 151.883 Z M 155.485 116.793 L 167.335 156.363 L 179.255 116.793 L 191.325 116.793 L 173.005 169.403 L 161.695 169.403 L 143.445 116.793 L 155.485 116.793 Z" style="white-space: pre;"/>
  <path d="M 180.349 267.718 L 428.155 267.718" style="stroke-width: 22px; stroke-linecap: round; stroke: rgb(0, 0, 0);">
    <title>top</title>
  </path>
  <path d="M 180.926 344.119 L 428.732 344.119" style="stroke-width: 22px; stroke-linecap: round; stroke: rgb(0, 0, 0);">
    <title>middle</title>
  </path>
  <path d="M 180.475 419.584 L 428.281 419.584" style="stroke-width: 22px; stroke-linecap: round; stroke: rgb(0, 0, 0);">
    <title>bottom</title>
  </path>
</svg>