<?xml version="1.0" encoding="utf-8"?>
<svg viewBox="0 0 512 512" xmlns="http://www.w3.org/2000/svg">
  <rect x="11.067" y="76.36" width="263.623" height="132.254" style="fill: none; stroke-linejoin: round; stroke-width: 22px; stroke: rgb(153, 153, 153);"/>
  <path d="M 107.383 73.368 L 107.018 11.334 L 355.925 10.805 L 501.056 156.354 L 500.74 500.998 L 107.292 500.712 L 107.459 211.586 M 355.019 7.725 L 355.378 156.789 L 495.62 156.244" style="stroke-linejoin: round; stroke-width: 22px; fill: none; stroke: rgb(153, 153, 153);"/>
  <path d="M 129.943 151.883 L 140.783 151.883 C 140.37 157.543 138.28 161.996 134.513 165.243 C 130.74 168.496 125.77 170.123 119.603 170.123 C 112.863 170.123 107.56 167.853 103.693 163.313 C 99.826 158.773 97.893 152.54 97.893 144.613 L 97.893 141.403 C 97.893 136.343 98.783 131.886 100.563 128.033 C 102.35 124.18 104.896 121.223 108.203 119.163 C 111.516 117.103 115.366 116.073 119.753 116.073 C 125.82 116.073 130.71 117.7 134.423 120.953 C 138.13 124.2 140.273 128.763 140.853 134.643 L 130.013 134.643 C 129.746 131.25 128.8 128.786 127.173 127.253 C 125.546 125.726 123.073 124.963 119.753 124.963 C 116.14 124.963 113.436 126.256 111.643 128.843 C 109.843 131.436 108.92 135.453 108.873 140.893 L 108.873 144.873 C 108.873 150.553 109.736 154.706 111.463 157.333 C 113.183 159.96 115.896 161.273 119.603 161.273 C 122.956 161.273 125.456 160.51 127.103 158.983 C 128.756 157.45 129.703 155.083 129.943 151.883 ZM 155.485 116.793 L 167.335 156.363 L 179.255 116.793 L 191.325 116.793 L 173.005 169.403 L 161.695 169.403 L 143.445 116.793 L 155.485 116.793 Z" transform="matrix(1, 0, 0, 1, 0, 0)" style="white-space: pre; fill: rgb(102, 102, 102);"/>
  <g transform="matrix(1, 0, 0, 1, 3.527051, -16.172852)">
    <line style="stroke-width: 11px; stroke: rgb(204, 0, 0);" x1="225.219" y1="342.353" x2="264.036" y2="303.536"/>
    <line style="stroke-width: 11px; stroke: rgb(204, 0, 0);" x1="338.965" y1="341.771" x2="377.782" y2="302.954"/>
    <line style="stroke-width: 11px; stroke: rgb(204, 0, 0);" x1="224.86" y1="341.984" x2="263.677" y2="303.167" transform="matrix(0, 1, -1, 0, 566.844002, 78.306999)"/>
    <line style="stroke-width: 11px; stroke: rgb(204, 0, 0);" x1="338.78" y1="341.94" x2="377.597" y2="303.122" transform="matrix(0, 1, -1, 0, 680.719498, -35.657486)"/>
    <path style="stroke-width: 11px; fill: none; stroke: rgb(204, 0, 0);" d="M 255.355 423.479 C 259.193 418.335 270.603 400.966 306.269 400.615 C 330.684 400.375 362.438 425.265 373.743 437.674"/>
    <path style="stroke-width: 11px; fill: none; stroke: rgb(204, 0, 0);" d="M 272.346 358.504 C 273.33 381.47 316.004 383.197 316.246 357.664"/>
  </g>
</svg>